<?xml version="1.0" encoding="UTF-8"?>
<!DOCTYPE svg PUBLIC "-//W3C//DTD SVG 1.1//EN" "http://www.w3.org/Graphics/SVG/1.1/DTD/svg11.dtd">
<!-- Creator: CorelDRAW -->
<svg xmlns="http://www.w3.org/2000/svg" xml:space="preserve" width="720px" height="819px" version="1.1" style="shape-rendering:geometricPrecision; text-rendering:geometricPrecision; image-rendering:optimizeQuality; fill-rule:evenodd; clip-rule:evenodd"
viewBox="0 0 720 818.42"
 xmlns:xlink="http://www.w3.org/1999/xlink"
 xmlns:xodm="http://www.corel.com/coreldraw/odm/2003">
 <defs>
  <style type="text/css">
   <![CDATA[
    .fil0 {fill:white}
   ]]>
  </style>
 </defs>
 <g id="Layer_x0020_1">
  <metadata id="CorelCorpID_0Corel-Layer"/>
  <g id="_3074268160080">
   <path class="fil0" d="M221.49 531.5c-10.08,1.34 -16.63,14.56 -14.63,29.53 2.02,14.95 11.79,25.98 21.89,24.62 10.07,-1.34 16.63,-14.57 14.63,-29.52 -2,-14.97 -11.8,-26 -21.89,-24.63zm-56.33 -32.52c-10.07,1.34 -16.63,14.56 -14.63,29.53 2.03,14.95 11.8,25.98 21.89,24.62 10.08,-1.34 16.63,-14.54 14.63,-29.51 -2,-14.97 -11.79,-26 -21.89,-24.64zm-34.43 -7.88c-2,-14.95 -11.8,-25.98 -21.89,-24.64 -10.1,1.37 -16.63,14.59 -14.63,29.54 2,14.97 11.8,25.98 21.89,24.64 10.07,-1.37 16.63,-14.57 14.63,-29.54zm184.45 -75.43l-315.18 -181.98 0 181.98 0 181.97 0 25.87 0 95.44 82.65 -47.72 97.33 56.2 157.61 90.99 0 -363.95 0 -25.87 -22.41 -12.93z"/>
   <polygon class="fil0" points="637.33,281.41 637.33,376.85 720,329.13 720,233.69 "/>
   <polygon class="fil0" points="592.53,601.66 509.86,649.38 509.86,744.83 539.99,727.43 592.53,697.1 "/>
   <polygon class="fil0" points="442.65,342.08 359.99,294.36 277.34,342.08 337.59,376.85 359.99,389.8 382.39,376.85 "/>
   <polygon class="fil0" points="427.43,281.54 487.46,316.21 547.51,281.54 525.62,268.91 487.46,246.87 "/>
   <polygon class="fil0" points="423.02,110.78 487.46,147.98 551.92,110.78 528.43,97.21 487.46,73.57 "/>
   <polygon class="fil0" points="22.4,194.89 82.43,229.56 142.48,194.89 120.59,182.26 82.43,160.22 "/>
   <polygon class="fil0" points="655.54,513.54 720,476.32 720,401.92 696.51,415.48 655.54,439.12 "/>
   <polygon class="fil0" points="637.33,575.79 637.33,671.23 720,623.51 720,528.07 "/>
   <polygon class="fil0" points="382.39,671.23 446.85,634.03 446.85,559.61 423.36,573.17 382.39,596.83 "/>
   <path class="fil0" d="M315.18 120.57l-82.66 -47.72 -82.65 47.72 60.25 34.8 6.11 3.51c6.6,3.81 10.37,10.35 10.37,17.97l0 23.41c0,7.62 -3.77,14.16 -10.37,17.97l-42.81 24.7 -33.9 19.57 93 53.71 92.99 -53.69 -76.7 -44.29c-6.58,-3.81 -10.37,-10.35 -10.37,-17.97l0 -23.41c0,-7.62 3.79,-14.16 10.37,-17.97l6.11 -3.51 60.26 -34.8z"/>
   <path class="fil0" d="M593.06 134.52l-79.86 46.1c-9.88,5.73 -19.67,8.35 -31.09,8.35l-11.18 0c-11.41,0 -21.21,-2.62 -31.09,-8.35l-66.54 -38.41c-4.71,-2.71 -7.41,-7.39 -7.41,-12.82l0 -3.52c0,-5.45 2.7,-10.11 7.41,-12.84l91.22 -52.66 -104.53 -60.37 -104.54 60.37 91.23 52.66c4.73,2.73 7.41,7.39 7.41,12.84l0 3.52c0,5.43 -2.68,10.11 -7.41,12.84l-91.23 52.66 104.54 60.35 79.85 -46.1c9.88,-5.71 19.68,-8.33 31.09,-8.33l11.18 0c11.42,0 21.21,2.62 31.09,8.33l79.86 46.1 104.53 -60.35 -104.53 -60.37z"/>
   <path class="fil0" d="M482.88 632.61l9.9 -17.15c4.22,-7.3 6.16,-14.54 6.16,-22.95l0 -79.54c0,-6.54 -3.24,-12.14 -8.91,-15.4l-0.1 -0.06c-5.67,-3.28 -12.14,-3.28 -17.78,0l-89.74 51.81 0 -46.3 0 -74.42 40.95 -23.64 23.49 -13.56 40.1 -23.15 0 103.62c0,6.54 3.21,12.14 8.88,15.4l0.13 0.06c5.64,3.28 12.11,3.28 17.78,0l89.73 -51.81 0 120.72 -83.66 48.3c-7.31,4.21 -12.61,9.51 -16.83,16.82l-9.9 17.14c-4.22,7.31 -6.15,14.53 -6.15,22.96l0 96.61 -104.54 60.35 0 -120.7 83.67 -48.31c7.3,-4.2 12.6,-9.5 16.82,-16.8z"/>
   <polygon class="fil0" points="531.45,342.55 531.45,413.08 592.53,377.81 592.53,307.28 "/>
  </g>
 </g>
</svg>
