<?xml version="1.0" encoding="UTF-8"?>
<!DOCTYPE svg PUBLIC "-//W3C//DTD SVG 1.1//EN" "http://www.w3.org/Graphics/SVG/1.1/DTD/svg11.dtd">
<!-- Creator: CorelDRAW -->
<svg xmlns="http://www.w3.org/2000/svg" xml:space="preserve" width="1318px" height="384px" version="1.1" style="shape-rendering:geometricPrecision; text-rendering:geometricPrecision; image-rendering:optimizeQuality; fill-rule:evenodd; clip-rule:evenodd"
viewBox="0 0 1318 384.41"
 xmlns:xlink="http://www.w3.org/1999/xlink"
 xmlns:xodm="http://www.corel.com/coreldraw/odm/2003">
 <defs>
  <style type="text/css">
   <![CDATA[
    .fil1 {fill:#11A1C5}
    .fil0 {fill:#193764}
    .fil3 {fill:#11A1C5;fill-rule:nonzero}
    .fil2 {fill:#193764;fill-rule:nonzero}
   ]]>
  </style>
 </defs>
 <g id="Layer_x0020_1">
  <metadata id="CorelCorpID_0Corel-Layer"/>
  <g id="_3074666760816">
   <g>
    <path class="fil0" d="M104.03 249.64c-4.73,0.63 -7.81,6.84 -6.87,13.87 0.95,7.02 5.54,12.2 10.28,11.56 4.73,-0.63 7.81,-6.84 6.87,-13.86 -0.94,-7.03 -5.54,-12.21 -10.28,-11.57zm-26.45 -15.27c-4.74,0.63 -7.82,6.84 -6.88,13.87 0.95,7.02 5.55,12.2 10.29,11.56 4.73,-0.63 7.81,-6.83 6.87,-13.86 -0.94,-7.03 -5.54,-12.21 -10.28,-11.57zm-16.18 -3.7c-0.94,-7.03 -5.54,-12.21 -10.28,-11.58 -4.74,0.64 -7.81,6.86 -6.87,13.88 0.94,7.03 5.54,12.2 10.28,11.57 4.73,-0.64 7.81,-6.84 6.87,-13.87zm86.64 -35.43l-148.04 -85.48 0 85.48 0 85.47 0 12.15 0 44.83 38.82 -22.42 45.72 26.4 74.02 42.74 0 -170.95 0 -12.15 -10.52 -6.07z"/>
    <polygon class="fil1" points="299.35,132.18 299.35,177.01 338.18,154.59 338.18,109.76 "/>
    <polygon class="fil1" points="278.31,282.6 239.48,305.01 239.48,349.84 253.63,341.67 278.31,327.42 "/>
    <polygon class="fil1" points="207.91,160.67 169.08,138.26 130.27,160.67 158.56,177 169.08,183.09 179.61,177 "/>
    <polygon class="fil1" points="200.76,132.24 228.96,148.52 257.16,132.24 246.88,126.3 228.96,115.95 "/>
    <polygon class="fil1" points="198.69,52.03 228.96,69.5 259.23,52.03 248.2,45.66 228.96,34.56 "/>
    <polygon class="fil1" points="10.52,91.54 38.72,107.82 66.92,91.54 56.64,85.61 38.72,75.26 "/>
    <polygon class="fil1" points="307.9,241.21 338.18,223.72 338.18,188.78 327.14,195.15 307.9,206.25 "/>
    <polygon class="fil1" points="299.35,270.44 299.35,315.27 338.18,292.86 338.18,248.03 "/>
    <polygon class="fil1" points="179.61,315.27 209.88,297.8 209.88,262.84 198.85,269.21 179.61,280.33 "/>
    <path class="fil0" d="M148.04 56.63l-38.83 -22.41 -38.82 22.41 28.3 16.34 2.87 1.65c3.1,1.8 4.87,4.87 4.87,8.45l0 10.99c0,3.58 -1.77,6.65 -4.87,8.44l-20.1 11.6 -15.93 9.19 43.68 25.23 43.68 -25.22 -36.03 -20.8c-3.09,-1.79 -4.87,-4.86 -4.87,-8.44l0 -10.99c0,-3.58 1.78,-6.65 4.87,-8.45l2.87 -1.65 28.31 -16.34z"/>
    <path class="fil0" d="M278.56 63.18l-37.51 21.66c-4.64,2.69 -9.24,3.92 -14.61,3.92l-5.25 0c-5.36,0 -9.96,-1.23 -14.6,-3.92l-31.25 -18.05c-2.22,-1.27 -3.49,-3.47 -3.49,-6.02l0 -1.65c0,-2.56 1.27,-4.75 3.49,-6.03l42.84 -24.73 -49.1 -28.36 -49.1 28.36 42.85 24.73c2.22,1.28 3.48,3.47 3.48,6.03l0 1.65c0,2.55 -1.26,4.75 -3.48,6.03l-42.85 24.74 49.1 28.34 37.51 -21.65c4.64,-2.68 9.24,-3.91 14.6,-3.91l5.25 0c5.37,0 9.97,1.23 14.61,3.91l37.51 21.65 49.09 -28.34 -49.09 -28.36z"/>
    <path class="fil0" d="M226.8 297.13l4.66 -8.05c1.98,-3.43 2.89,-6.84 2.89,-10.78l0 -37.36c0,-3.07 -1.52,-5.7 -4.18,-7.23l-0.05 -0.03c-2.66,-1.54 -5.71,-1.54 -8.36,0l-42.14 24.33 0 -21.74 0 -34.96 19.23 -11.1 11.03 -6.37 18.83 -10.88 0 48.67c0,3.08 1.52,5.71 4.18,7.24l0.06 0.02c2.65,1.54 5.69,1.54 8.35,0l42.15 -24.33 0 56.7 -39.3 22.69c-3.43,1.98 -5.92,4.47 -7.9,7.9l-4.65 8.05c-1.98,3.43 -2.89,6.82 -2.89,10.78l0 45.38 -49.1 28.35 0 -56.69 39.29 -22.7c3.43,-1.97 5.92,-4.46 7.9,-7.89z"/>
    <polygon class="fil1" points="249.62,160.89 249.62,194.02 278.31,177.46 278.31,144.33 "/>
   </g>
   <g>
    <polygon class="fil2" points="483.25,282.58 591.44,282.58 591.44,322.36 440.37,322.36 440.37,62.04 483.25,62.04 "/>
    <path class="fil2" d="M706.6 153.88c-15.36,0 -28.45,4.4 -39.17,13.07 -10.77,8.74 -17.9,20.59 -21.24,35.57l121.45 0c-3.79,-15.24 -11.04,-27.14 -21.88,-35.76 -10.84,-8.54 -23.92,-12.88 -39.16,-12.88zm102.43 68.66c0,3.83 -0.31,8.3 -0.93,13.38l-163.03 0c2.54,16.24 9.35,29.06 20.32,38.54 11.03,9.43 24.79,14.14 41.21,14.14 11.9,0 22.49,-2.61 31.92,-7.82 9.35,-5.19 16.72,-12.39 22.05,-21.62l43.56 0c-7.99,21.19 -20.64,37.86 -37.98,49.94 -17.29,12.08 -37.12,18.17 -59.55,18.17 -29.25,0 -53.79,-10.05 -73.49,-30.25 -19.76,-20.13 -29.62,-45.17 -29.62,-75.04 0,-19.7 4.52,-37.67 13.44,-53.73 8.99,-16.1 21.33,-28.74 37.06,-37.85 15.74,-9.17 33.28,-13.7 52.61,-13.7 20.01,0 37.87,4.72 53.6,14.26 15.73,9.48 27.77,22.24 36.19,38.28 8.43,16.06 12.64,33.78 12.64,53.3z"/>
    <polygon class="fil2" points="1003.76,322.36 957.28,322.36 907.34,245.96 856.71,322.36 811.3,322.36 882.67,218.51 816.75,121.59 863.22,121.59 907.53,189.15 953.26,121.59 998.68,121.59 932.06,216.53 "/>
    <polygon class="fil2" points="1028.99,121.59 1070.2,121.59 1070.2,322.36 1028.99,322.36 "/>
    <polygon class="fil3" points="1028.25,47.86 1070.88,47.86 1070.88,90.56 1028.25,90.56 "/>
    <path class="fil2" d="M1163.77 269.38c12.33,12.34 27.95,18.47 46.97,18.47 18.96,0 34.64,-6.13 46.91,-18.53 12.27,-12.33 18.4,-28.13 18.4,-47.34 0,-19.27 -6.13,-35.07 -18.4,-47.4 -12.27,-12.34 -27.95,-18.53 -46.91,-18.53 -19.02,0 -34.64,6.19 -46.97,18.53 -12.26,12.33 -18.39,28.13 -18.39,47.4 0,19.21 6.13,35.01 18.39,47.4zm101.75 44.18c-16.29,9.11 -34.58,13.71 -54.78,13.71 -20.21,0 -38.48,-4.6 -54.83,-13.71 -16.37,-9.17 -29.19,-21.74 -38.49,-37.73 -9.35,-16.05 -14,-34.02 -14,-53.85 0,-19.95 4.65,-37.98 14,-54.04 9.3,-16.04 22.12,-28.56 38.49,-37.66 16.35,-9.06 34.62,-13.58 54.83,-13.58 20.2,0 38.49,4.52 54.84,13.58 16.29,9.1 29.13,21.68 38.48,37.79 9.3,16.12 13.94,34.08 13.94,53.91 0,19.83 -4.64,37.8 -13.94,53.85 -9.35,15.99 -22.19,28.56 -38.54,37.73z"/>
   </g>
  </g>
 </g>
</svg>
